# xmcd
#
# Track frame offsets:
#	150
#	13208
#	26898
#	40965
#	54622
#	70036
#	82923
#	101629
#	123497
#	136293
#	150836
#	164301
#	176862
#	191210
#	204275
#	217393
#	229635
#	242309
#	254164
#	265875
#	278566
#	298524
#
# Disc length: 4119
#
# Revision: 6
# Processed by: cddbd v1.5.1PL0 Copyright (c) Steve Scherf et al.
# Submitted via: audiograbber 1.81.02
# Normalized: r4:DSETVAR1,TSWAP
#
DISCID=42101516
DTITLE=Various Artist - Damn Right We Got The Blues (Disk 2)
DYEAR=1900
DGENRE=Blues
TTITLE0=Muddy Waters - Hoochie Coochie Man
TTITLE1=John Lee Hooker - One Bourbon, One Scotch, One Beer
TTITLE2=Howlin' Wolf - Smokestack Lightnin'
TTITLE3=Bo Diddley - I'm A Man
TTITLE4=Albert Collins - Frosty
TTITLE5=Blind Faith - Sleeping In The Ground
TTITLE6=Bobby 'Blue' Bland - Stormy Monday Blues
TTITLE7=Chain - Black and Blue
TTITLE8=Etta James - Something's Got A Hold On Me
TTITLE9=Buddy Guy - My Time After A While
TTITLE10=Taj Mahal - Statesboro' Blues
TTITLE11=Sunnyland Slim - She Ain't Nowhere
TTITLE12=Lowell Fulson - Reconsider Baby
TTITLE13=Alberta Adams - Remember
TTITLE14=Slim Harpo - Baby, Scratch My Back
TTITLE15=Jimmy Witherspoon - Ain't Nobody's Business
TTITLE16=Jimmy Rogers - Walking By Myself
TTITLE17=Eddie Boyd - Come On Home
TTITLE18=Sonny Boy Williamson - Don't Start Me To Talkin'
TTITLE19=Fleetwood Mac - Black Magic Woman
TTITLE20=Koko Taylor - Wang Dang Doodle
TTITLE21=Little Milton - Satisfied
EXTD=ID3G: 0
EXTT0=
EXTT1=
EXTT2=
EXTT3=
EXTT4=
EXTT5=
EXTT6=
EXTT7=
EXTT8=
EXTT9=
EXTT10=
EXTT11=
EXTT12=
EXTT13=
EXTT14=
EXTT15=
EXTT16=
EXTT17=
EXTT18=
EXTT19=
EXTT20=
EXTT21=
PLAYORDER=
